<?xml version="1.0" standalone="no"?><!DOCTYPE svg PUBLIC "-//W3C//DTD SVG 1.1//EN" "http://www.w3.org/Graphics/SVG/1.1/DTD/svg11.dtd"><svg t="1759371134562" class="icon" viewBox="0 0 1024 1024" version="1.1" xmlns="http://www.w3.org/2000/svg" p-id="2305" xmlns:xlink="http://www.w3.org/1999/xlink" width="200" height="200"><path d="M129.8 791.54c-5.78 0-11.6-1.35-16.94-4.06a37.431 37.431 0 0 1-20.53-33.41V270.7c0-14.13 7.94-27.04 20.53-33.41 12.62-6.37 27.74-5.12 39.08 3.18l329.93 241.67c9.62 7.06 15.33 18.3 15.33 30.23s-5.71 23.16-15.33 30.23L151.94 784.3a37.438 37.438 0 0 1-22.14 7.24z m37.48-446.96v335.57l229.04-167.78-229.04-167.79z" fill="#2AAAA8" p-id="2306"></path><path d="M567.65 791.54c-5.78 0-11.6-1.35-16.94-4.06a37.431 37.431 0 0 1-20.53-33.41V270.7c0-14.13 7.94-27.04 20.53-33.41 12.62-6.37 27.74-5.12 39.08 3.18l329.93 241.67c9.62 7.06 15.33 18.3 15.33 30.23s-5.71 23.16-15.33 30.23L589.79 784.3a37.46 37.46 0 0 1-22.14 7.24z m37.47-446.96v335.57l229.04-167.78-229.04-167.79z" fill="#4181BA" p-id="2307"></path></svg>